<svg xmlns="http://www.w3.org/2000/svg" width="25" height="16" viewBox="0 0 25 16">
    <path fill="#8E9FB1" fill-rule="evenodd" d="M7.94 6.416h7.626C16.097 10.25 14.496 16 7.941 16 3.555 16 0 12.418 0 8 0 3.58 3.555 0 7.94 0c2.058 0 3.933.788 5.343 2.082-1.661 1.581-1.607 1.675-2.26 2.333-.816-.68-1.705-1.168-3.082-1.168-2.606 0-4.639 2.128-4.639 4.753s2.033 4.753 4.639 4.753c2.574 0 3.62-1.119 4.292-3.173-1.242 0-4.292.004-4.292.004V6.416zm14.309.158H25v1.98h-2.751v2.852h-1.966V8.554h-2.83v-1.98h2.83V3.802h1.966v2.772z"/>
</svg>
