<svg xmlns="http://www.w3.org/2000/svg" width="16" height="16" viewBox="0 0 16 16">
    <path fill="#4A4A4A" fill-rule="evenodd" d="M14.188.8H2.57c-1 0-1.812.807-1.812 1.803v11.594C.758 15.193 1.57 16 2.57 16h11.618c1 0 1.812-.807 1.812-1.803V2.603C16 1.607 15.189.8 14.188.8zm-2.475 2.375c0-.262.214-.475.476-.475h1.43c.262 0 .476.213.476.475V4.6a.476.476 0 0 1-.477.475H12.19a.476.476 0 0 1-.476-.475V3.175zM8.397 5.5a2.924 2.924 0 0 1 2.931 2.917 2.924 2.924 0 0 1-2.931 2.916 2.924 2.924 0 0 1-2.931-2.916A2.924 2.924 0 0 1 8.396 5.5zM14.57 14.1a.476.476 0 0 1-.476.475H2.664a.476.476 0 0 1-.477-.475V6.975h1.905c-.248.356-.332 1.02-.332 1.443 0 2.543 2.08 4.613 4.637 4.613 2.557 0 4.637-2.07 4.637-4.613 0-.422-.06-1.077-.368-1.443h1.905V14.1z"/>
</svg>
